<mxfile host="app.diagrams.net" modified="2021-05-13T20:01:25.118Z" agent="5.0 (Windows NT 10.0; Win64; x64) AppleWebKit/537.36 (KHTML, like Gecko) Chrome/90.0.4430.212 Safari/537.36" etag="MfOTIIEcvMd6S_eq2KYS" version="14.5.3" type="github">
  <diagram name="Page-1" id="e7e014a7-5840-1c2e-5031-d8a46d1fe8dd">
    <mxGraphModel dx="1447" dy="867" grid="1" gridSize="10" guides="1" tooltips="1" connect="1" arrows="1" fold="1" page="1" pageScale="1" pageWidth="1169" pageHeight="826" background="#ffffff" math="0" shadow="0">
      <root>
        <mxCell id="0" />
        <mxCell id="1" parent="0" />
        <mxCell id="rn4QGfQgwCHPHP2lhHPe-48" style="edgeStyle=orthogonalEdgeStyle;shape=flexArrow;rounded=0;orthogonalLoop=1;jettySize=auto;html=1;" edge="1" parent="1" source="1c4_iRwscZPM74WyziOa-47">
          <mxGeometry relative="1" as="geometry">
            <mxPoint x="640" y="245" as="targetPoint" />
          </mxGeometry>
        </mxCell>
        <mxCell id="1c4_iRwscZPM74WyziOa-47" value="" style="strokeWidth=1;shadow=0;dashed=0;align=center;html=1;shape=mxgraph.mockup.containers.browserWindow;rSize=0;strokeColor=#666666;strokeColor2=#008cff;strokeColor3=#c4c4c4;mainText=,;recursiveResize=0;" parent="1" vertex="1">
          <mxGeometry x="50" y="80" width="460" height="330" as="geometry" />
        </mxCell>
        <mxCell id="1c4_iRwscZPM74WyziOa-48" value="Page 1" style="strokeWidth=1;shadow=0;dashed=0;align=center;html=1;shape=mxgraph.mockup.containers.anchor;fontSize=17;fontColor=#666666;align=left;" parent="1c4_iRwscZPM74WyziOa-47" vertex="1">
          <mxGeometry x="60" y="12" width="110" height="26" as="geometry" />
        </mxCell>
        <mxCell id="1c4_iRwscZPM74WyziOa-49" value="https://www.frikbus.it" style="strokeWidth=1;shadow=0;dashed=0;align=center;html=1;shape=mxgraph.mockup.containers.anchor;rSize=0;fontSize=17;fontColor=#666666;align=left;" parent="1c4_iRwscZPM74WyziOa-47" vertex="1">
          <mxGeometry x="130" y="60" width="250" height="26" as="geometry" />
        </mxCell>
        <mxCell id="1c4_iRwscZPM74WyziOa-42" value="" style="shape=image;html=1;verticalAlign=top;verticalLabelPosition=bottom;labelBackgroundColor=#ffffff;imageAspect=0;aspect=fixed;image=https://cdn0.iconfinder.com/data/icons/small-n-flat/24/678109-profile-group-128.png" parent="1c4_iRwscZPM74WyziOa-47" vertex="1">
          <mxGeometry x="80" y="150" width="80" height="80" as="geometry" />
        </mxCell>
        <mxCell id="1c4_iRwscZPM74WyziOa-45" value="" style="shape=image;html=1;verticalAlign=top;verticalLabelPosition=bottom;labelBackgroundColor=#ffffff;imageAspect=0;aspect=fixed;image=https://cdn2.iconfinder.com/data/icons/ourea-icons/128/Administrative_Tools_256x256-32.png" parent="1c4_iRwscZPM74WyziOa-47" vertex="1">
          <mxGeometry x="300" y="150" width="80" height="80" as="geometry" />
        </mxCell>
        <mxCell id="1c4_iRwscZPM74WyziOa-50" style="edgeStyle=orthogonalEdgeStyle;rounded=0;orthogonalLoop=1;jettySize=auto;html=1;exitX=0.5;exitY=1;exitDx=0;exitDy=0;" parent="1c4_iRwscZPM74WyziOa-47" source="1c4_iRwscZPM74WyziOa-45" target="1c4_iRwscZPM74WyziOa-45" edge="1">
          <mxGeometry relative="1" as="geometry" />
        </mxCell>
        <mxCell id="rn4QGfQgwCHPHP2lhHPe-2" value="Accesso&amp;nbsp;&lt;br&gt;Utenti" style="text;html=1;resizable=0;autosize=1;align=center;verticalAlign=middle;points=[];fillColor=none;strokeColor=none;rounded=0;" vertex="1" parent="1c4_iRwscZPM74WyziOa-47">
          <mxGeometry x="90" y="230" width="60" height="30" as="geometry" />
        </mxCell>
        <mxCell id="rn4QGfQgwCHPHP2lhHPe-3" value="Amministrativa" style="text;html=1;resizable=0;autosize=1;align=center;verticalAlign=middle;points=[];fillColor=none;strokeColor=none;rounded=0;" vertex="1" parent="1c4_iRwscZPM74WyziOa-47">
          <mxGeometry x="305" y="235" width="90" height="20" as="geometry" />
        </mxCell>
        <mxCell id="rn4QGfQgwCHPHP2lhHPe-75" style="edgeStyle=orthogonalEdgeStyle;shape=flexArrow;rounded=0;orthogonalLoop=1;jettySize=auto;html=1;" edge="1" parent="1" source="rn4QGfQgwCHPHP2lhHPe-11">
          <mxGeometry relative="1" as="geometry">
            <mxPoint x="280" y="880" as="targetPoint" />
          </mxGeometry>
        </mxCell>
        <mxCell id="rn4QGfQgwCHPHP2lhHPe-11" value="" style="strokeWidth=1;shadow=0;dashed=0;align=center;html=1;shape=mxgraph.mockup.containers.browserWindow;rSize=0;strokeColor=#666666;strokeColor2=#008cff;strokeColor3=#c4c4c4;mainText=,;recursiveResize=0;" vertex="1" parent="1">
          <mxGeometry x="50" y="440" width="460" height="330" as="geometry" />
        </mxCell>
        <mxCell id="rn4QGfQgwCHPHP2lhHPe-12" value="Page 3" style="strokeWidth=1;shadow=0;dashed=0;align=center;html=1;shape=mxgraph.mockup.containers.anchor;fontSize=17;fontColor=#666666;align=left;" vertex="1" parent="rn4QGfQgwCHPHP2lhHPe-11">
          <mxGeometry x="60" y="12" width="110" height="26" as="geometry" />
        </mxCell>
        <mxCell id="rn4QGfQgwCHPHP2lhHPe-13" value="&lt;font style=&quot;font-size: 16px&quot;&gt;https://www.frikbus.it/registrazione/ricerca&lt;/font&gt;" style="strokeWidth=1;shadow=0;dashed=0;align=center;html=1;shape=mxgraph.mockup.containers.anchor;rSize=0;fontSize=17;fontColor=#666666;align=left;" vertex="1" parent="rn4QGfQgwCHPHP2lhHPe-11">
          <mxGeometry x="130" y="60" width="250" height="26" as="geometry" />
        </mxCell>
        <mxCell id="rn4QGfQgwCHPHP2lhHPe-16" style="edgeStyle=orthogonalEdgeStyle;rounded=0;orthogonalLoop=1;jettySize=auto;html=1;exitX=0.5;exitY=1;exitDx=0;exitDy=0;" edge="1" parent="rn4QGfQgwCHPHP2lhHPe-11">
          <mxGeometry relative="1" as="geometry">
            <mxPoint x="340" y="230" as="sourcePoint" />
            <mxPoint x="340" y="230" as="targetPoint" />
          </mxGeometry>
        </mxCell>
        <mxCell id="rn4QGfQgwCHPHP2lhHPe-20" value="&lt;font style=&quot;font-size: 16px&quot;&gt;Viaggi a partire da&amp;nbsp;â‚¬35,00&amp;nbsp;&lt;/font&gt;" style="text;html=1;resizable=0;autosize=1;align=center;verticalAlign=middle;points=[];fillColor=none;strokeColor=none;rounded=0;" vertex="1" parent="rn4QGfQgwCHPHP2lhHPe-11">
          <mxGeometry x="15" y="135" width="200" height="20" as="geometry" />
        </mxCell>
        <mxCell id="rn4QGfQgwCHPHP2lhHPe-29" value="" style="rounded=0;whiteSpace=wrap;html=1;" vertex="1" parent="rn4QGfQgwCHPHP2lhHPe-11">
          <mxGeometry x="20" y="162.5" width="420" height="125" as="geometry" />
        </mxCell>
        <mxCell id="rn4QGfQgwCHPHP2lhHPe-24" value="" style="html=1;shadow=0;dashed=0;shape=mxgraph.bootstrap.radioButton2;labelPosition=right;verticalLabelPosition=middle;align=left;verticalAlign=middle;gradientColor=#DEDEDE;fillColor=#EDEDED;checked=0;spacing=5;checkedFill=#0085FC;checkedStroke=#ffffff;" vertex="1" parent="rn4QGfQgwCHPHP2lhHPe-11">
          <mxGeometry x="30" y="175" width="20" height="20" as="geometry" />
        </mxCell>
        <mxCell id="rn4QGfQgwCHPHP2lhHPe-26" value="Solo andata" style="text;html=1;resizable=0;autosize=1;align=center;verticalAlign=middle;points=[];fillColor=none;strokeColor=none;rounded=0;" vertex="1" parent="rn4QGfQgwCHPHP2lhHPe-11">
          <mxGeometry x="50" y="175" width="80" height="20" as="geometry" />
        </mxCell>
        <mxCell id="rn4QGfQgwCHPHP2lhHPe-25" value="" style="html=1;shadow=0;dashed=0;shape=mxgraph.bootstrap.radioButton2;labelPosition=right;verticalLabelPosition=middle;align=left;verticalAlign=middle;gradientColor=#DEDEDE;fillColor=#EDEDED;checked=0;spacing=5;checkedFill=#0085FC;checkedStroke=#ffffff;" vertex="1" parent="rn4QGfQgwCHPHP2lhHPe-11">
          <mxGeometry x="160" y="175" width="20" height="20" as="geometry" />
        </mxCell>
        <mxCell id="rn4QGfQgwCHPHP2lhHPe-27" value="Ritorno" style="text;html=1;resizable=0;autosize=1;align=center;verticalAlign=middle;points=[];fillColor=none;strokeColor=none;rounded=0;" vertex="1" parent="rn4QGfQgwCHPHP2lhHPe-11">
          <mxGeometry x="180" y="175" width="50" height="20" as="geometry" />
        </mxCell>
        <mxCell id="rn4QGfQgwCHPHP2lhHPe-30" value="" style="rounded=1;whiteSpace=wrap;html=1;" vertex="1" parent="rn4QGfQgwCHPHP2lhHPe-11">
          <mxGeometry x="30" y="235" width="150" height="29" as="geometry" />
        </mxCell>
        <mxCell id="rn4QGfQgwCHPHP2lhHPe-31" value="Da" style="text;html=1;resizable=0;autosize=1;align=center;verticalAlign=middle;points=[];fillColor=none;strokeColor=none;rounded=0;" vertex="1" parent="rn4QGfQgwCHPHP2lhHPe-11">
          <mxGeometry x="20" y="215" width="30" height="20" as="geometry" />
        </mxCell>
        <mxCell id="rn4QGfQgwCHPHP2lhHPe-32" value="" style="shape=image;html=1;verticalAlign=top;verticalLabelPosition=bottom;labelBackgroundColor=#ffffff;imageAspect=0;aspect=fixed;image=https://cdn3.iconfinder.com/data/icons/basic-web-elements/48/location2-128.png" vertex="1" parent="rn4QGfQgwCHPHP2lhHPe-11">
          <mxGeometry x="30" y="239.5" width="20" height="20" as="geometry" />
        </mxCell>
        <mxCell id="rn4QGfQgwCHPHP2lhHPe-33" value="Roma" style="text;html=1;resizable=0;autosize=1;align=center;verticalAlign=middle;points=[];fillColor=none;strokeColor=none;rounded=0;" vertex="1" parent="rn4QGfQgwCHPHP2lhHPe-11">
          <mxGeometry x="40" y="239.5" width="50" height="20" as="geometry" />
        </mxCell>
        <mxCell id="rn4QGfQgwCHPHP2lhHPe-36" value="" style="shape=image;html=1;verticalAlign=top;verticalLabelPosition=bottom;labelBackgroundColor=#ffffff;imageAspect=0;aspect=fixed;image=https://cdn4.iconfinder.com/data/icons/top-search-7/128/_arrow_arrow_direction_right_next_forward-128.png" vertex="1" parent="rn4QGfQgwCHPHP2lhHPe-11">
          <mxGeometry x="90" y="235" width="30" height="30" as="geometry" />
        </mxCell>
        <mxCell id="rn4QGfQgwCHPHP2lhHPe-37" value="" style="shape=image;html=1;verticalAlign=top;verticalLabelPosition=bottom;labelBackgroundColor=#ffffff;imageAspect=0;aspect=fixed;image=https://cdn3.iconfinder.com/data/icons/basic-web-elements/48/location2-128.png" vertex="1" parent="rn4QGfQgwCHPHP2lhHPe-11">
          <mxGeometry x="120" y="239.5" width="20" height="20" as="geometry" />
        </mxCell>
        <mxCell id="rn4QGfQgwCHPHP2lhHPe-38" value="A" style="text;html=1;resizable=0;autosize=1;align=center;verticalAlign=middle;points=[];fillColor=none;strokeColor=none;rounded=0;" vertex="1" parent="rn4QGfQgwCHPHP2lhHPe-11">
          <mxGeometry x="120" y="215" width="20" height="20" as="geometry" />
        </mxCell>
        <mxCell id="rn4QGfQgwCHPHP2lhHPe-39" value="Parigi" style="text;html=1;resizable=0;autosize=1;align=center;verticalAlign=middle;points=[];fillColor=none;strokeColor=none;rounded=0;" vertex="1" parent="rn4QGfQgwCHPHP2lhHPe-11">
          <mxGeometry x="130" y="239.5" width="50" height="20" as="geometry" />
        </mxCell>
        <mxCell id="rn4QGfQgwCHPHP2lhHPe-40" value="" style="rounded=1;whiteSpace=wrap;html=1;" vertex="1" parent="rn4QGfQgwCHPHP2lhHPe-11">
          <mxGeometry x="195" y="235" width="145" height="30" as="geometry" />
        </mxCell>
        <mxCell id="rn4QGfQgwCHPHP2lhHPe-41" value="gio 13 mag" style="text;html=1;resizable=0;autosize=1;align=center;verticalAlign=middle;points=[];fillColor=none;strokeColor=none;rounded=0;" vertex="1" parent="rn4QGfQgwCHPHP2lhHPe-11">
          <mxGeometry x="195" y="240" width="70" height="20" as="geometry" />
        </mxCell>
        <mxCell id="rn4QGfQgwCHPHP2lhHPe-43" value="" style="line;strokeWidth=2;direction=south;html=1;" vertex="1" parent="rn4QGfQgwCHPHP2lhHPe-11">
          <mxGeometry x="265" y="235" width="10" height="30" as="geometry" />
        </mxCell>
        <mxCell id="rn4QGfQgwCHPHP2lhHPe-44" value="sab 15 mag" style="text;html=1;resizable=0;autosize=1;align=center;verticalAlign=middle;points=[];fillColor=none;strokeColor=none;rounded=0;" vertex="1" parent="rn4QGfQgwCHPHP2lhHPe-11">
          <mxGeometry x="265" y="240" width="80" height="20" as="geometry" />
        </mxCell>
        <mxCell id="rn4QGfQgwCHPHP2lhHPe-45" value="Andata" style="text;html=1;resizable=0;autosize=1;align=center;verticalAlign=middle;points=[];fillColor=none;strokeColor=none;rounded=0;" vertex="1" parent="rn4QGfQgwCHPHP2lhHPe-11">
          <mxGeometry x="190" y="215" width="50" height="20" as="geometry" />
        </mxCell>
        <mxCell id="rn4QGfQgwCHPHP2lhHPe-76" value="" style="rounded=1;whiteSpace=wrap;html=1;" vertex="1" parent="rn4QGfQgwCHPHP2lhHPe-11">
          <mxGeometry x="350" y="235" width="80" height="30" as="geometry" />
        </mxCell>
        <mxCell id="rn4QGfQgwCHPHP2lhHPe-77" value="Passeggeri&lt;br&gt;" style="text;html=1;resizable=0;autosize=1;align=center;verticalAlign=middle;points=[];fillColor=none;strokeColor=none;rounded=0;" vertex="1" parent="rn4QGfQgwCHPHP2lhHPe-11">
          <mxGeometry x="340" y="215" width="80" height="20" as="geometry" />
        </mxCell>
        <mxCell id="rn4QGfQgwCHPHP2lhHPe-78" value="&lt;font style=&quot;font-size: 10px&quot;&gt;1/... adulti,&lt;br&gt;&amp;nbsp;1/... bambini&lt;/font&gt;" style="text;html=1;resizable=0;autosize=1;align=left;verticalAlign=middle;points=[];fillColor=none;strokeColor=none;rounded=0;" vertex="1" parent="rn4QGfQgwCHPHP2lhHPe-11">
          <mxGeometry x="355" y="229.5" width="70" height="40" as="geometry" />
        </mxCell>
        <mxCell id="rn4QGfQgwCHPHP2lhHPe-120" value="" style="ellipse;whiteSpace=wrap;html=1;aspect=fixed;" vertex="1" parent="rn4QGfQgwCHPHP2lhHPe-11">
          <mxGeometry x="380" y="175" width="30" height="30" as="geometry" />
        </mxCell>
        <mxCell id="rn4QGfQgwCHPHP2lhHPe-119" value="" style="shape=image;html=1;verticalAlign=top;verticalLabelPosition=bottom;labelBackgroundColor=#ffffff;imageAspect=0;aspect=fixed;image=https://cdn0.iconfinder.com/data/icons/essentials-9/128/__Search-128.png" vertex="1" parent="rn4QGfQgwCHPHP2lhHPe-11">
          <mxGeometry x="385" y="180" width="20" height="20" as="geometry" />
        </mxCell>
        <mxCell id="rn4QGfQgwCHPHP2lhHPe-49" value="UTENTI" style="text;html=1;resizable=0;autosize=1;align=center;verticalAlign=middle;points=[];fillColor=none;strokeColor=none;rounded=0;" vertex="1" parent="1">
          <mxGeometry x="540" y="220" width="60" height="20" as="geometry" />
        </mxCell>
        <mxCell id="rn4QGfQgwCHPHP2lhHPe-71" style="edgeStyle=orthogonalEdgeStyle;shape=flexArrow;rounded=0;orthogonalLoop=1;jettySize=auto;html=1;" edge="1" parent="1" source="rn4QGfQgwCHPHP2lhHPe-50">
          <mxGeometry relative="1" as="geometry">
            <mxPoint x="510" y="600" as="targetPoint" />
            <Array as="points">
              <mxPoint x="880" y="600" />
            </Array>
          </mxGeometry>
        </mxCell>
        <mxCell id="rn4QGfQgwCHPHP2lhHPe-50" value="" style="strokeWidth=1;shadow=0;dashed=0;align=center;html=1;shape=mxgraph.mockup.containers.browserWindow;rSize=0;strokeColor=#666666;strokeColor2=#008cff;strokeColor3=#c4c4c4;mainText=,;recursiveResize=0;" vertex="1" parent="1">
          <mxGeometry x="640" y="80" width="460" height="330" as="geometry" />
        </mxCell>
        <mxCell id="rn4QGfQgwCHPHP2lhHPe-51" value="Page 2" style="strokeWidth=1;shadow=0;dashed=0;align=center;html=1;shape=mxgraph.mockup.containers.anchor;fontSize=17;fontColor=#666666;align=left;" vertex="1" parent="rn4QGfQgwCHPHP2lhHPe-50">
          <mxGeometry x="60" y="12" width="110" height="26" as="geometry" />
        </mxCell>
        <mxCell id="rn4QGfQgwCHPHP2lhHPe-52" value="https://www.frikbus.it/registrazione" style="strokeWidth=1;shadow=0;dashed=0;align=center;html=1;shape=mxgraph.mockup.containers.anchor;rSize=0;fontSize=17;fontColor=#666666;align=left;" vertex="1" parent="rn4QGfQgwCHPHP2lhHPe-50">
          <mxGeometry x="130" y="60" width="250" height="26" as="geometry" />
        </mxCell>
        <mxCell id="rn4QGfQgwCHPHP2lhHPe-55" style="edgeStyle=orthogonalEdgeStyle;rounded=0;orthogonalLoop=1;jettySize=auto;html=1;exitX=0.5;exitY=1;exitDx=0;exitDy=0;" edge="1" parent="rn4QGfQgwCHPHP2lhHPe-50">
          <mxGeometry relative="1" as="geometry">
            <mxPoint x="340" y="230" as="sourcePoint" />
            <mxPoint x="340" y="230" as="targetPoint" />
          </mxGeometry>
        </mxCell>
        <mxCell id="rn4QGfQgwCHPHP2lhHPe-58" value="" style="shape=image;html=1;verticalAlign=top;verticalLabelPosition=bottom;labelBackgroundColor=#ffffff;imageAspect=0;aspect=fixed;image=https://cdn2.iconfinder.com/data/icons/people-80/96/Picture1-128.png" vertex="1" parent="rn4QGfQgwCHPHP2lhHPe-50">
          <mxGeometry x="10" y="120" width="40" height="40" as="geometry" />
        </mxCell>
        <mxCell id="rn4QGfQgwCHPHP2lhHPe-59" value="&lt;font style=&quot;font-size: 18px&quot;&gt;REGISTRAZIONE&lt;/font&gt;" style="text;html=1;resizable=0;autosize=1;align=center;verticalAlign=middle;points=[];fillColor=none;strokeColor=none;rounded=0;" vertex="1" parent="rn4QGfQgwCHPHP2lhHPe-50">
          <mxGeometry x="160" y="140" width="160" height="20" as="geometry" />
        </mxCell>
        <mxCell id="rn4QGfQgwCHPHP2lhHPe-60" value="Nome&amp;nbsp;&lt;br&gt;" style="text;html=1;resizable=0;autosize=1;align=center;verticalAlign=middle;points=[];fillColor=none;strokeColor=none;rounded=0;" vertex="1" parent="rn4QGfQgwCHPHP2lhHPe-50">
          <mxGeometry x="95" y="190" width="50" height="20" as="geometry" />
        </mxCell>
        <mxCell id="rn4QGfQgwCHPHP2lhHPe-61" value="Cognome" style="text;html=1;resizable=0;autosize=1;align=center;verticalAlign=middle;points=[];fillColor=none;strokeColor=none;rounded=0;" vertex="1" parent="rn4QGfQgwCHPHP2lhHPe-50">
          <mxGeometry x="90" y="210" width="70" height="20" as="geometry" />
        </mxCell>
        <mxCell id="rn4QGfQgwCHPHP2lhHPe-63" value="Email" style="text;html=1;resizable=0;autosize=1;align=center;verticalAlign=middle;points=[];fillColor=none;strokeColor=none;rounded=0;" vertex="1" parent="rn4QGfQgwCHPHP2lhHPe-50">
          <mxGeometry x="90" y="250" width="50" height="20" as="geometry" />
        </mxCell>
        <mxCell id="rn4QGfQgwCHPHP2lhHPe-64" value="Cellulare" style="text;html=1;resizable=0;autosize=1;align=center;verticalAlign=middle;points=[];fillColor=none;strokeColor=none;rounded=0;" vertex="1" parent="rn4QGfQgwCHPHP2lhHPe-50">
          <mxGeometry x="95" y="230" width="60" height="20" as="geometry" />
        </mxCell>
        <mxCell id="rn4QGfQgwCHPHP2lhHPe-65" value="Password" style="text;html=1;resizable=0;autosize=1;align=center;verticalAlign=middle;points=[];fillColor=none;strokeColor=none;rounded=0;" vertex="1" parent="rn4QGfQgwCHPHP2lhHPe-50">
          <mxGeometry x="90" y="280" width="70" height="20" as="geometry" />
        </mxCell>
        <mxCell id="rn4QGfQgwCHPHP2lhHPe-66" value="" style="rounded=0;whiteSpace=wrap;html=1;" vertex="1" parent="rn4QGfQgwCHPHP2lhHPe-50">
          <mxGeometry x="180" y="195" width="120" height="10" as="geometry" />
        </mxCell>
        <mxCell id="rn4QGfQgwCHPHP2lhHPe-67" value="" style="rounded=0;whiteSpace=wrap;html=1;" vertex="1" parent="rn4QGfQgwCHPHP2lhHPe-50">
          <mxGeometry x="180" y="215" width="120" height="10" as="geometry" />
        </mxCell>
        <mxCell id="rn4QGfQgwCHPHP2lhHPe-68" value="" style="rounded=0;whiteSpace=wrap;html=1;" vertex="1" parent="rn4QGfQgwCHPHP2lhHPe-50">
          <mxGeometry x="180" y="235" width="120" height="10" as="geometry" />
        </mxCell>
        <mxCell id="rn4QGfQgwCHPHP2lhHPe-69" value="" style="rounded=0;whiteSpace=wrap;html=1;" vertex="1" parent="rn4QGfQgwCHPHP2lhHPe-50">
          <mxGeometry x="180" y="255" width="120" height="10" as="geometry" />
        </mxCell>
        <mxCell id="rn4QGfQgwCHPHP2lhHPe-70" value="" style="rounded=0;whiteSpace=wrap;html=1;" vertex="1" parent="rn4QGfQgwCHPHP2lhHPe-50">
          <mxGeometry x="180" y="290" width="120" height="10" as="geometry" />
        </mxCell>
        <mxCell id="rn4QGfQgwCHPHP2lhHPe-133" style="edgeStyle=orthogonalEdgeStyle;shape=flexArrow;rounded=0;orthogonalLoop=1;jettySize=auto;html=1;" edge="1" parent="1" source="rn4QGfQgwCHPHP2lhHPe-79">
          <mxGeometry relative="1" as="geometry">
            <mxPoint x="640" y="1045" as="targetPoint" />
          </mxGeometry>
        </mxCell>
        <mxCell id="rn4QGfQgwCHPHP2lhHPe-79" value="" style="strokeWidth=1;shadow=0;dashed=0;align=center;html=1;shape=mxgraph.mockup.containers.browserWindow;rSize=0;strokeColor=#666666;strokeColor2=#008cff;strokeColor3=#c4c4c4;mainText=,;recursiveResize=0;" vertex="1" parent="1">
          <mxGeometry x="50" y="880" width="460" height="330" as="geometry" />
        </mxCell>
        <mxCell id="rn4QGfQgwCHPHP2lhHPe-80" value="Page 4" style="strokeWidth=1;shadow=0;dashed=0;align=center;html=1;shape=mxgraph.mockup.containers.anchor;fontSize=17;fontColor=#666666;align=left;" vertex="1" parent="rn4QGfQgwCHPHP2lhHPe-79">
          <mxGeometry x="60" y="12" width="110" height="26" as="geometry" />
        </mxCell>
        <mxCell id="rn4QGfQgwCHPHP2lhHPe-81" value="&lt;font style=&quot;font-size: 12px&quot;&gt;https://www.frikbus.it/registrazione/ricerca/prenotazione&lt;/font&gt;" style="strokeWidth=1;shadow=0;dashed=0;align=center;html=1;shape=mxgraph.mockup.containers.anchor;rSize=0;fontSize=17;fontColor=#666666;align=left;" vertex="1" parent="rn4QGfQgwCHPHP2lhHPe-79">
          <mxGeometry x="130" y="60" width="250" height="26" as="geometry" />
        </mxCell>
        <mxCell id="rn4QGfQgwCHPHP2lhHPe-82" style="edgeStyle=orthogonalEdgeStyle;rounded=0;orthogonalLoop=1;jettySize=auto;html=1;exitX=0.5;exitY=1;exitDx=0;exitDy=0;" edge="1" parent="rn4QGfQgwCHPHP2lhHPe-79">
          <mxGeometry relative="1" as="geometry">
            <mxPoint x="340" y="230" as="sourcePoint" />
            <mxPoint x="340" y="230" as="targetPoint" />
          </mxGeometry>
        </mxCell>
        <mxCell id="rn4QGfQgwCHPHP2lhHPe-106" value="" style="rounded=1;whiteSpace=wrap;html=1;" vertex="1" parent="rn4QGfQgwCHPHP2lhHPe-79">
          <mxGeometry x="10" y="160" width="440" height="70" as="geometry" />
        </mxCell>
        <mxCell id="rn4QGfQgwCHPHP2lhHPe-107" value="" style="rounded=1;whiteSpace=wrap;html=1;" vertex="1" parent="rn4QGfQgwCHPHP2lhHPe-79">
          <mxGeometry x="10" y="240" width="440" height="70" as="geometry" />
        </mxCell>
        <mxCell id="rn4QGfQgwCHPHP2lhHPe-108" value="&lt;font style=&quot;font-size: 14px&quot;&gt;Partenza piÃ¹ prossima&lt;/font&gt;" style="text;html=1;resizable=0;autosize=1;align=center;verticalAlign=middle;points=[];fillColor=none;strokeColor=none;rounded=0;" vertex="1" parent="rn4QGfQgwCHPHP2lhHPe-79">
          <mxGeometry x="160" y="120" width="150" height="20" as="geometry" />
        </mxCell>
        <mxCell id="rn4QGfQgwCHPHP2lhHPe-109" value="&lt;b&gt;&lt;font style=&quot;font-size: 13px&quot;&gt;21:25&lt;/font&gt;&lt;/b&gt;" style="text;html=1;resizable=0;autosize=1;align=center;verticalAlign=middle;points=[];fillColor=none;strokeColor=none;rounded=0;" vertex="1" parent="rn4QGfQgwCHPHP2lhHPe-79">
          <mxGeometry x="20" y="180" width="50" height="20" as="geometry" />
        </mxCell>
        <mxCell id="rn4QGfQgwCHPHP2lhHPe-110" value="" style="line;strokeWidth=4;html=1;perimeter=backbonePerimeter;points=[];outlineConnect=0;" vertex="1" parent="rn4QGfQgwCHPHP2lhHPe-79">
          <mxGeometry x="70" y="185" width="50" height="10" as="geometry" />
        </mxCell>
        <mxCell id="rn4QGfQgwCHPHP2lhHPe-111" value="Roma" style="text;html=1;resizable=0;autosize=1;align=center;verticalAlign=middle;points=[];fillColor=none;strokeColor=none;rounded=0;" vertex="1" parent="rn4QGfQgwCHPHP2lhHPe-79">
          <mxGeometry x="20" y="200" width="50" height="20" as="geometry" />
        </mxCell>
        <mxCell id="rn4QGfQgwCHPHP2lhHPe-112" value="&lt;b&gt;&lt;font style=&quot;font-size: 13px&quot;&gt;1g 8h&lt;/font&gt;&lt;/b&gt;" style="text;html=1;resizable=0;autosize=1;align=center;verticalAlign=middle;points=[];fillColor=none;strokeColor=none;rounded=0;" vertex="1" parent="rn4QGfQgwCHPHP2lhHPe-79">
          <mxGeometry x="120" y="180" width="50" height="20" as="geometry" />
        </mxCell>
        <mxCell id="rn4QGfQgwCHPHP2lhHPe-113" value="" style="line;strokeWidth=4;html=1;perimeter=backbonePerimeter;points=[];outlineConnect=0;" vertex="1" parent="rn4QGfQgwCHPHP2lhHPe-79">
          <mxGeometry x="170" y="185" width="50" height="10" as="geometry" />
        </mxCell>
        <mxCell id="rn4QGfQgwCHPHP2lhHPe-114" value="&lt;b&gt;&lt;font style=&quot;font-size: 13px&quot;&gt;05:25&lt;/font&gt;&lt;/b&gt;" style="text;html=1;resizable=0;autosize=1;align=center;verticalAlign=middle;points=[];fillColor=none;strokeColor=none;rounded=0;" vertex="1" parent="rn4QGfQgwCHPHP2lhHPe-79">
          <mxGeometry x="220" y="180" width="50" height="20" as="geometry" />
        </mxCell>
        <mxCell id="rn4QGfQgwCHPHP2lhHPe-116" value="Parigi" style="text;html=1;resizable=0;autosize=1;align=center;verticalAlign=middle;points=[];fillColor=none;strokeColor=none;rounded=0;" vertex="1" parent="rn4QGfQgwCHPHP2lhHPe-79">
          <mxGeometry x="220" y="200" width="50" height="20" as="geometry" />
        </mxCell>
        <mxCell id="rn4QGfQgwCHPHP2lhHPe-117" value="" style="rounded=1;whiteSpace=wrap;html=1;" vertex="1" parent="rn4QGfQgwCHPHP2lhHPe-79">
          <mxGeometry x="350" y="195" width="90" height="22.5" as="geometry" />
        </mxCell>
        <mxCell id="rn4QGfQgwCHPHP2lhHPe-118" value="Prenota" style="text;html=1;resizable=0;autosize=1;align=center;verticalAlign=middle;points=[];fillColor=none;strokeColor=none;rounded=0;" vertex="1" parent="rn4QGfQgwCHPHP2lhHPe-79">
          <mxGeometry x="365" y="195" width="60" height="20" as="geometry" />
        </mxCell>
        <mxCell id="rn4QGfQgwCHPHP2lhHPe-121" value="&lt;b&gt;&lt;font style=&quot;font-size: 13px&quot;&gt;23:35&lt;/font&gt;&lt;/b&gt;" style="text;html=1;resizable=0;autosize=1;align=center;verticalAlign=middle;points=[];fillColor=none;strokeColor=none;rounded=0;" vertex="1" parent="rn4QGfQgwCHPHP2lhHPe-79">
          <mxGeometry x="20" y="260" width="50" height="20" as="geometry" />
        </mxCell>
        <mxCell id="rn4QGfQgwCHPHP2lhHPe-122" value="Roma" style="text;html=1;resizable=0;autosize=1;align=center;verticalAlign=middle;points=[];fillColor=none;strokeColor=none;rounded=0;" vertex="1" parent="rn4QGfQgwCHPHP2lhHPe-79">
          <mxGeometry x="20" y="280" width="50" height="20" as="geometry" />
        </mxCell>
        <mxCell id="rn4QGfQgwCHPHP2lhHPe-123" value="" style="line;strokeWidth=4;html=1;perimeter=backbonePerimeter;points=[];outlineConnect=0;" vertex="1" parent="rn4QGfQgwCHPHP2lhHPe-79">
          <mxGeometry x="70" y="265" width="50" height="10" as="geometry" />
        </mxCell>
        <mxCell id="rn4QGfQgwCHPHP2lhHPe-124" value="&lt;b&gt;&lt;font style=&quot;font-size: 13px&quot;&gt;1g 8h&lt;/font&gt;&lt;/b&gt;" style="text;html=1;resizable=0;autosize=1;align=center;verticalAlign=middle;points=[];fillColor=none;strokeColor=none;rounded=0;" vertex="1" parent="rn4QGfQgwCHPHP2lhHPe-79">
          <mxGeometry x="120" y="260" width="50" height="20" as="geometry" />
        </mxCell>
        <mxCell id="rn4QGfQgwCHPHP2lhHPe-125" value="" style="line;strokeWidth=4;html=1;perimeter=backbonePerimeter;points=[];outlineConnect=0;" vertex="1" parent="rn4QGfQgwCHPHP2lhHPe-79">
          <mxGeometry x="170" y="265" width="50" height="10" as="geometry" />
        </mxCell>
        <mxCell id="rn4QGfQgwCHPHP2lhHPe-126" value="&lt;b&gt;&lt;font style=&quot;font-size: 13px&quot;&gt;07:35&lt;/font&gt;&lt;/b&gt;" style="text;html=1;resizable=0;autosize=1;align=center;verticalAlign=middle;points=[];fillColor=none;strokeColor=none;rounded=0;" vertex="1" parent="rn4QGfQgwCHPHP2lhHPe-79">
          <mxGeometry x="220" y="260" width="50" height="20" as="geometry" />
        </mxCell>
        <mxCell id="rn4QGfQgwCHPHP2lhHPe-127" value="Parigi" style="text;html=1;resizable=0;autosize=1;align=center;verticalAlign=middle;points=[];fillColor=none;strokeColor=none;rounded=0;" vertex="1" parent="rn4QGfQgwCHPHP2lhHPe-79">
          <mxGeometry x="220" y="275" width="50" height="20" as="geometry" />
        </mxCell>
        <mxCell id="rn4QGfQgwCHPHP2lhHPe-128" value="" style="rounded=1;whiteSpace=wrap;html=1;" vertex="1" parent="rn4QGfQgwCHPHP2lhHPe-79">
          <mxGeometry x="350" y="280" width="90" height="22.5" as="geometry" />
        </mxCell>
        <mxCell id="rn4QGfQgwCHPHP2lhHPe-129" value="Prenota" style="text;html=1;resizable=0;autosize=1;align=center;verticalAlign=middle;points=[];fillColor=none;strokeColor=none;rounded=0;" vertex="1" parent="rn4QGfQgwCHPHP2lhHPe-79">
          <mxGeometry x="365" y="280" width="60" height="20" as="geometry" />
        </mxCell>
        <mxCell id="rn4QGfQgwCHPHP2lhHPe-131" value="â‚¬ 130,25" style="text;html=1;resizable=0;autosize=1;align=center;verticalAlign=middle;points=[];fillColor=none;strokeColor=none;rounded=0;" vertex="1" parent="rn4QGfQgwCHPHP2lhHPe-79">
          <mxGeometry x="350" y="175" width="60" height="20" as="geometry" />
        </mxCell>
        <mxCell id="rn4QGfQgwCHPHP2lhHPe-132" value="â‚¬124,95" style="text;html=1;resizable=0;autosize=1;align=center;verticalAlign=middle;points=[];fillColor=none;strokeColor=none;rounded=0;" vertex="1" parent="rn4QGfQgwCHPHP2lhHPe-79">
          <mxGeometry x="350" y="260" width="60" height="20" as="geometry" />
        </mxCell>
        <mxCell id="rn4QGfQgwCHPHP2lhHPe-105" value="t" style="text;html=1;align=center;verticalAlign=middle;resizable=0;points=[];autosize=1;" vertex="1" parent="1">
          <mxGeometry x="440" y="950" width="20" height="20" as="geometry" />
        </mxCell>
        <mxCell id="rn4QGfQgwCHPHP2lhHPe-134" value="" style="strokeWidth=1;shadow=0;dashed=0;align=center;html=1;shape=mxgraph.mockup.containers.browserWindow;rSize=0;strokeColor=#666666;strokeColor2=#008cff;strokeColor3=#c4c4c4;mainText=,;recursiveResize=0;" vertex="1" parent="1">
          <mxGeometry x="640" y="880" width="460" height="330" as="geometry" />
        </mxCell>
        <mxCell id="rn4QGfQgwCHPHP2lhHPe-135" value="Page 5" style="strokeWidth=1;shadow=0;dashed=0;align=center;html=1;shape=mxgraph.mockup.containers.anchor;fontSize=17;fontColor=#666666;align=left;" vertex="1" parent="rn4QGfQgwCHPHP2lhHPe-134">
          <mxGeometry x="60" y="12" width="110" height="26" as="geometry" />
        </mxCell>
        <mxCell id="rn4QGfQgwCHPHP2lhHPe-136" value="&lt;font style=&quot;font-size: 11px&quot;&gt;https://www.frikbus.it/registrazione/ricerca/prenotazione/acquisto&lt;/font&gt;" style="strokeWidth=1;shadow=0;dashed=0;align=center;html=1;shape=mxgraph.mockup.containers.anchor;rSize=0;fontSize=17;fontColor=#666666;align=left;" vertex="1" parent="rn4QGfQgwCHPHP2lhHPe-134">
          <mxGeometry x="130" y="60" width="250" height="26" as="geometry" />
        </mxCell>
        <mxCell id="rn4QGfQgwCHPHP2lhHPe-137" style="edgeStyle=orthogonalEdgeStyle;rounded=0;orthogonalLoop=1;jettySize=auto;html=1;exitX=0.5;exitY=1;exitDx=0;exitDy=0;" edge="1" parent="rn4QGfQgwCHPHP2lhHPe-134">
          <mxGeometry relative="1" as="geometry">
            <mxPoint x="340" y="230" as="sourcePoint" />
            <mxPoint x="340" y="230" as="targetPoint" />
          </mxGeometry>
        </mxCell>
        <mxCell id="rn4QGfQgwCHPHP2lhHPe-161" value="Seleziona carta" style="text;html=1;resizable=0;autosize=1;align=center;verticalAlign=middle;points=[];fillColor=none;strokeColor=none;rounded=0;" vertex="1" parent="rn4QGfQgwCHPHP2lhHPe-134">
          <mxGeometry x="10" y="120" width="100" height="20" as="geometry" />
        </mxCell>
        <mxCell id="rn4QGfQgwCHPHP2lhHPe-162" value="" style="rounded=1;whiteSpace=wrap;html=1;" vertex="1" parent="rn4QGfQgwCHPHP2lhHPe-134">
          <mxGeometry x="20" y="150" width="120" height="20" as="geometry" />
        </mxCell>
        <mxCell id="rn4QGfQgwCHPHP2lhHPe-163" value="PayPal" style="text;html=1;resizable=0;autosize=1;align=center;verticalAlign=middle;points=[];fillColor=none;strokeColor=none;rounded=0;" vertex="1" parent="rn4QGfQgwCHPHP2lhHPe-134">
          <mxGeometry x="20" y="150" width="50" height="20" as="geometry" />
        </mxCell>
        <mxCell id="rn4QGfQgwCHPHP2lhHPe-164" value="" style="html=1;verticalLabelPosition=bottom;labelBackgroundColor=#ffffff;verticalAlign=top;shadow=0;dashed=0;strokeWidth=2;shape=mxgraph.ios7.misc.down;strokeColor=#0080f0;" vertex="1" parent="rn4QGfQgwCHPHP2lhHPe-134">
          <mxGeometry x="118" y="157" width="12" height="6" as="geometry" />
        </mxCell>
        <mxCell id="rn4QGfQgwCHPHP2lhHPe-165" value="" style="rounded=0;whiteSpace=wrap;html=1;" vertex="1" parent="rn4QGfQgwCHPHP2lhHPe-134">
          <mxGeometry x="55" y="170" width="120" height="80" as="geometry" />
        </mxCell>
        <mxCell id="rn4QGfQgwCHPHP2lhHPe-166" value="" style="html=1;verticalLabelPosition=bottom;labelBackgroundColor=#ffffff;verticalAlign=top;shadow=0;dashed=0;strokeWidth=2;shape=mxgraph.ios7.misc.up;strokeColor=#0080f0;" vertex="1" parent="rn4QGfQgwCHPHP2lhHPe-134">
          <mxGeometry x="60" y="180" width="12" height="6" as="geometry" />
        </mxCell>
        <mxCell id="rn4QGfQgwCHPHP2lhHPe-167" value="MasterCard" style="text;html=1;resizable=0;autosize=1;align=center;verticalAlign=middle;points=[];fillColor=none;strokeColor=none;rounded=0;" vertex="1" parent="rn4QGfQgwCHPHP2lhHPe-134">
          <mxGeometry x="72" y="173" width="80" height="20" as="geometry" />
        </mxCell>
        <mxCell id="rn4QGfQgwCHPHP2lhHPe-169" value="" style="html=1;verticalLabelPosition=bottom;labelBackgroundColor=#ffffff;verticalAlign=top;shadow=0;dashed=0;strokeWidth=2;shape=mxgraph.ios7.misc.up;strokeColor=#0080f0;" vertex="1" parent="rn4QGfQgwCHPHP2lhHPe-134">
          <mxGeometry x="60" y="220" width="12" height="6" as="geometry" />
        </mxCell>
        <mxCell id="rn4QGfQgwCHPHP2lhHPe-173" value="" style="html=1;verticalLabelPosition=bottom;labelBackgroundColor=#ffffff;verticalAlign=top;shadow=0;dashed=0;strokeWidth=2;shape=mxgraph.ios7.misc.up;strokeColor=#0080f0;" vertex="1" parent="rn4QGfQgwCHPHP2lhHPe-134">
          <mxGeometry x="60" y="200" width="12" height="6" as="geometry" />
        </mxCell>
        <mxCell id="rn4QGfQgwCHPHP2lhHPe-172" value="" style="html=1;verticalLabelPosition=bottom;labelBackgroundColor=#ffffff;verticalAlign=top;shadow=0;dashed=0;strokeWidth=2;shape=mxgraph.ios7.misc.up;strokeColor=#0080f0;" vertex="1" parent="rn4QGfQgwCHPHP2lhHPe-134">
          <mxGeometry x="60" y="240" width="12" height="6" as="geometry" />
        </mxCell>
        <mxCell id="rn4QGfQgwCHPHP2lhHPe-174" value="AmericanExpress" style="text;html=1;resizable=0;autosize=1;align=center;verticalAlign=middle;points=[];fillColor=none;strokeColor=none;rounded=0;" vertex="1" parent="rn4QGfQgwCHPHP2lhHPe-134">
          <mxGeometry x="70" y="193" width="110" height="20" as="geometry" />
        </mxCell>
        <mxCell id="rn4QGfQgwCHPHP2lhHPe-175" value="Visa" style="text;html=1;resizable=0;autosize=1;align=center;verticalAlign=middle;points=[];fillColor=none;strokeColor=none;rounded=0;" vertex="1" parent="rn4QGfQgwCHPHP2lhHPe-134">
          <mxGeometry x="70" y="213" width="40" height="20" as="geometry" />
        </mxCell>
        <mxCell id="rn4QGfQgwCHPHP2lhHPe-178" value="PostaPay" style="text;html=1;resizable=0;autosize=1;align=center;verticalAlign=middle;points=[];fillColor=none;strokeColor=none;rounded=0;" vertex="1" parent="rn4QGfQgwCHPHP2lhHPe-134">
          <mxGeometry x="70" y="230" width="70" height="20" as="geometry" />
        </mxCell>
        <mxCell id="rn4QGfQgwCHPHP2lhHPe-179" value="" style="rounded=1;whiteSpace=wrap;html=1;" vertex="1" parent="rn4QGfQgwCHPHP2lhHPe-134">
          <mxGeometry x="265" y="150" width="120" height="20" as="geometry" />
        </mxCell>
        <mxCell id="rn4QGfQgwCHPHP2lhHPe-180" value="Numero carta" style="text;html=1;resizable=0;autosize=1;align=center;verticalAlign=middle;points=[];fillColor=none;strokeColor=none;rounded=0;" vertex="1" parent="rn4QGfQgwCHPHP2lhHPe-134">
          <mxGeometry x="265" y="120" width="90" height="20" as="geometry" />
        </mxCell>
      </root>
    </mxGraphModel>
  </diagram>
</mxfile>
